<svg class="" width="20" height="14" viewBox="0 0 20 14" xmlns="http://www.w3.org/2000/svg" fill="url(#uid_49)">
    <path fill-rule="evenodd" clip-rule="evenodd" d="M1.84006 5.4367C2.19536 5.4367 2.49139 5.14651 2.49139 4.79823C2.49139 4.44996 2.19536 4.15977 1.84006 4.15977H1.48476C1.12947 4.15977 0.83329 4.44996 0.83329 4.79823C0.83329 5.14651 1.12947 5.4367 1.48476 5.4367H1.84006ZM15.282 13.1569C18.6574 11.6477 20.0785 7.81669 18.539 4.6241C17.4731 2.36029 15.2229 1.02527 12.8542 0.909088H6.16283C5.57062 0.909088 5.15606 1.37355 5.15606 1.89597C5.15606 2.47634 5.62989 2.88271 6.16283 2.88271H7.88006C8.23535 2.88271 8.53139 3.17289 8.53139 3.52117C8.53139 3.86945 8.23535 4.15977 7.88006 4.15977H3.67575C3.32046 4.15977 3.02428 4.44996 3.02428 4.79823C3.02428 5.14651 3.32046 5.4367 3.67575 5.4367H6.69578C7.05108 5.4367 7.34711 5.72702 7.34711 6.0753C7.34711 6.42358 7.05108 6.71376 6.69578 6.71376H4.80077C4.44547 6.71376 4.14943 7.00395 4.14943 7.35222C4.14943 7.7005 4.44547 7.99083 4.80077 7.99083H6.10357C6.16283 8.68738 6.34048 9.38394 6.63652 10.0224C8.11697 13.215 12.0252 14.6081 15.282 13.1569ZM9.22163 8.83321C8.36181 6.99779 9.18283 4.82663 11.0552 3.98379C12.9277 3.14096 15.1426 3.94576 16.0024 5.78119C16.8622 7.61661 16.0413 9.78777 14.1688 10.6306C12.2964 11.4734 10.0814 10.6686 9.22163 8.83321Z"></path>
    <path d="M14.0385 5.20456L15.2228 7.17818C15.2821 7.29423 15.2821 7.35232 15.2228 7.46837L14.0385 9.44199C13.9793 9.55803 13.8609 9.55803 13.8016 9.55803H11.4922C11.3738 9.55803 11.3146 9.49994 11.2554 9.44199L10.071 7.46837C10.0119 7.35232 10.0119 7.29423 10.071 7.17818L11.2554 5.20456C11.3146 5.08852 11.4331 5.08852 11.4922 5.08852H13.8016C13.9202 5.03042 13.9793 5.08852 14.0385 5.20456Z"></path>
    <defs>
        <linearGradient id="uid_49" x1="0.833291" y1="13.7309" x2="12.8788" y2="-3.48465" gradientUnits="userSpaceOnUse">
            <stop stop-color="#B473F5"></stop>
            <stop offset="1" stop-color="#E292AA"></stop>
        </linearGradient>
    </defs>
</svg>