                    <svg
                      className="heroIcon-3kmupU"
                      viewBox="0 0 149 60"
                      fill="none"
                      xmlns="http://www.w3.org/2000/svg"
                    >
                      <g fill="currentColor">
                        <path d="M135.444 24.5787H117.119C116.652 24.5787 116.243 24.9294 116.184 25.397L115.307 31.4759C115.22 32.0312 115.658 32.5572 116.243 32.5572H119.603C119.954 32.5572 120.159 32.9079 120.042 33.2002C119.633 34.1646 119.311 35.246 119.165 36.3858L117.47 48.1637C116.359 56.0546 122.906 59.9708 130.066 59.9708C137.548 59.9708 144.913 56.0253 146.023 48.1637L147.718 36.3858C148.771 28.6702 142.429 24.754 135.444 24.5787ZM138.951 36.415L137.256 47.9299C136.876 50.6478 133.807 51.9045 130.972 51.9045C128.342 51.9045 125.77 50.6478 126.121 48.1637L127.816 36.3858C128.196 33.8139 131.264 32.4988 134.099 32.4988C136.934 32.4988 139.36 33.8139 138.951 36.415Z"></path>
                        <path d="M33.7681 24.5787H26.9294C26.4618 24.5787 26.0526 24.9294 25.9942 25.397L23.8899 40.3897V40.4189L23.9776 46.2056C23.9776 46.3225 23.8899 46.4394 23.773 46.4686L21.8149 39.4837V39.4545L15.7068 25.1632C15.5606 24.8125 15.2099 24.5787 14.83 24.5787H7.90356C7.43595 24.5787 7.0268 24.9294 6.96835 25.397L2.35071 58.4218C2.26304 59.0063 2.73064 59.5032 3.28593 59.5032H10.1832C10.6508 59.5032 11.0599 59.1525 11.1184 58.6849L12.9304 45.5626V45.5334L12.8427 38.8115L13.0473 38.7531L15.1223 45.7379V45.7672L20.8212 58.9479C20.9674 59.2986 21.3181 59.5324 21.698 59.5324H29.1797C29.6474 59.5324 30.0565 59.1817 30.115 58.7141L34.7326 25.6892C34.8203 25.1047 34.3527 24.5787 33.7681 24.5787Z"></path>
                        <path d="M48.7314 24.5787H41.8342C41.3666 24.5787 40.9575 24.9294 40.899 25.397L36.2814 58.3926C36.1937 58.9771 36.6613 59.474 37.2166 59.474H44.1138C44.5814 59.474 44.9906 59.1232 45.049 58.6556L49.6667 25.66C49.7543 25.1047 49.316 24.5787 48.7314 24.5787Z"></path>
                        <path d="M81.0843 24.5787H55.2782C54.8106 24.5787 54.4014 24.9294 54.343 25.397L53.437 31.5636C53.3493 32.1481 53.7877 32.6449 54.3722 32.6449H61.5909C62.1754 32.6449 62.6138 33.1418 62.5261 33.7263L59.1359 58.3926C59.0483 58.9771 59.5159 59.474 60.0712 59.474H67.0561C67.5237 59.474 67.9328 59.1232 67.9913 58.6556L71.4691 33.4632C71.5276 32.9956 71.9367 32.6449 72.4043 32.6449H80.1491C80.6167 32.6449 81.0259 32.2942 81.0843 31.8266L81.9903 25.66C82.1364 25.1047 81.6688 24.5787 81.0843 24.5787Z"></path>
                        <path d="M100.811 24.5787H87.6892C87.2216 24.5787 86.8124 24.9294 86.754 25.397L82.1364 58.3926C82.0487 58.9771 82.5163 59.4739 83.0716 59.4739H90.0565C90.5241 59.4739 90.9332 59.1232 90.9917 58.6556L92.3361 48.8066C92.3653 48.5728 92.5699 48.3975 92.8037 48.3975H93.7097C93.885 48.3975 94.0312 48.4851 94.1188 48.6313L100.782 59.0648C100.958 59.3278 101.25 59.5032 101.601 59.5032H110.251C111.011 59.5032 111.479 58.6264 111.04 58.0127L104.026 47.9883C103.851 47.7545 103.939 47.4038 104.202 47.2869C108.673 45.095 111.274 42.8738 112.122 36.6196C113.115 28.4364 108.001 24.5787 100.811 24.5787ZM103.208 36.7657C102.974 38.7823 101.396 40.7988 98.678 40.7988H94.6157C94.0311 40.7988 93.5928 40.2728 93.6804 39.7175L94.5572 33.6386C94.6157 33.171 95.0248 32.8203 95.4924 32.8203H99.847C102.419 32.8203 103.471 34.6615 103.208 36.7657Z"></path>
                        <path d="M59.8372 3.6824H64.8055C66.0037 3.6824 67.0266 3.85776 67.845 4.23769C68.6048 4.55917 69.2478 5.11445 69.7154 5.81587C70.1246 6.51728 70.3584 7.30637 70.3291 8.09546C70.3291 8.91377 70.1246 9.70286 69.6862 10.4043C69.2186 11.1349 68.5171 11.6902 67.7281 12.0409C66.8513 12.4501 65.7407 12.6546 64.4548 12.6546H59.8372V3.6824V3.6824ZM64.3963 10.3458C65.2147 10.3458 65.8284 10.1412 66.2668 9.73209C66.7052 9.2937 66.939 8.70919 66.9097 8.06623C66.939 7.48172 66.7344 6.92644 66.3252 6.51728C65.9453 6.13735 65.3608 5.93277 64.5717 5.93277H63.0227V10.3166H64.3963V10.3458Z"></path>
                        <path d="M77.8109 12.6254C77.1679 12.4501 76.5249 12.187 75.9404 11.8363V9.70286C76.4373 10.0828 77.0218 10.3458 77.6063 10.4919C78.2785 10.6965 78.9507 10.7842 79.6521 10.8134C79.8859 10.8134 80.1197 10.7842 80.3535 10.6965C80.4996 10.6088 80.5873 10.5212 80.5873 10.4043C80.5873 10.2874 80.5581 10.1705 80.4704 10.0828C80.3243 9.96589 80.1489 9.90743 79.9735 9.87821L78.4538 9.5275C77.5771 9.32292 76.9633 9.03067 76.5834 8.67996C76.2035 8.30003 75.9989 7.77397 76.0281 7.24791C76.0281 6.7803 76.2035 6.31269 76.5249 5.96199C76.9049 5.55283 77.3725 5.26058 77.8985 5.11445C78.5707 4.90987 79.2721 4.79297 80.0028 4.82219C80.675 4.82219 81.3179 4.88064 81.9609 5.056C82.4869 5.1729 82.9838 5.37748 83.4514 5.64051V7.65707C83.013 7.39404 82.5454 7.21869 82.0778 7.10178C81.5517 6.95566 80.9964 6.89721 80.4704 6.89721C79.6813 6.89721 79.2721 7.04333 79.2721 7.30636C79.2721 7.42326 79.3306 7.54017 79.4475 7.59862C79.6521 7.68629 79.8859 7.74475 80.1197 7.8032L81.4056 8.037C82.2239 8.18313 82.8669 8.44616 83.276 8.79686C83.6852 9.14757 83.8898 9.70286 83.8898 10.4043C83.8898 11.1641 83.5098 11.8655 82.8669 12.2455C82.1947 12.6839 81.2302 12.9177 79.9735 12.9177C79.2137 12.8884 78.483 12.8008 77.8109 12.6254Z"></path>
                        <path d="M86.8417 12.3624C86.1696 12.0409 85.585 11.5441 85.1759 10.9011C84.796 10.2874 84.6206 9.55675 84.6206 8.82612C84.6206 8.09548 84.796 7.39407 85.2051 6.78033C85.6143 6.13737 86.1988 5.66976 86.9002 5.34828C87.7477 4.99757 88.6537 4.79299 89.5597 4.82222C90.8456 4.82222 91.8978 5.08525 92.7453 5.64053V7.97858C92.4238 7.774 92.0731 7.59864 91.6932 7.48174C91.284 7.36484 90.8456 7.27716 90.4073 7.27716C89.6182 7.27716 89.0044 7.42329 88.5368 7.71555C87.8939 8.06625 87.6893 8.85534 88.04 9.4983C88.1569 9.70288 88.3322 9.87824 88.5368 9.99514C88.9752 10.2874 89.5889 10.4335 90.4365 10.4335C90.8749 10.4335 91.284 10.3751 91.6932 10.2582C92.0731 10.1413 92.4238 9.99514 92.7453 9.79056V12.0409C91.7516 12.6254 90.6411 12.9177 89.5013 12.8885C88.5953 12.9177 87.6893 12.7423 86.8417 12.3624Z"></path>
                        <path d="M95.931 12.3624C95.2295 12.0409 94.645 11.5441 94.2359 10.9011C93.8559 10.2874 93.6514 9.55674 93.6514 8.8261C93.6514 8.09547 93.8267 7.39405 94.2359 6.78032C94.645 6.16658 95.2295 5.66975 95.931 5.37749C97.5968 4.70531 99.4965 4.70531 101.162 5.37749C101.835 5.66975 102.419 6.16658 102.828 6.78032C103.208 7.39405 103.413 8.12469 103.413 8.8261C103.413 9.55674 103.208 10.2874 102.828 10.9011C102.419 11.5441 101.835 12.0409 101.162 12.3624C99.4965 13.0638 97.5968 13.0638 95.931 12.3624ZM99.818 10.0828C100.139 9.76132 100.315 9.29371 100.286 8.85533C100.315 8.38772 100.139 7.94934 99.818 7.62786C99.4673 7.30638 98.9996 7.16025 98.532 7.16025C98.0644 7.13102 97.5968 7.30638 97.2461 7.62786C96.9246 7.94934 96.7493 8.38772 96.7785 8.85533C96.7493 9.32294 96.9246 9.76132 97.2461 10.0828C97.5968 10.4043 98.0644 10.5796 98.532 10.5504C98.9996 10.5796 99.4673 10.4043 99.818 10.0828Z"></path>
                        <path d="M111.099 5.28981V8.06624C110.719 7.83243 110.281 7.71553 109.842 7.74476C109.17 7.74476 108.644 7.94934 108.264 8.35849C107.913 8.76765 107.709 9.41061 107.709 10.2874V12.6254H104.582V5.14369H107.65V7.51095C107.826 6.63419 108.089 5.99123 108.469 5.58207C108.848 5.17291 109.375 4.93911 109.93 4.96833C110.339 4.96833 110.748 5.08523 111.099 5.28981Z"></path>
                        <path d="M121.474 3.41937V12.6254H118.347V10.9596C118.113 11.5441 117.675 12.0701 117.149 12.3916C116.535 12.7423 115.863 12.9177 115.161 12.8884C114.518 12.9177 113.875 12.7131 113.32 12.3624C112.794 12.0117 112.356 11.5148 112.093 10.9303C111.8 10.2874 111.654 9.58596 111.654 8.88455C111.625 8.15391 111.8 7.42327 112.093 6.78031C112.385 6.16657 112.853 5.66974 113.408 5.31903C113.992 4.96833 114.665 4.79297 115.337 4.79297C116.827 4.79297 117.821 5.43593 118.347 6.72186V3.41937H121.474ZM117.909 10.0243C118.23 9.70286 118.405 9.26448 118.376 8.82609C118.376 8.38771 118.201 7.94933 117.909 7.65707C117.178 7.04334 116.126 7.04334 115.366 7.65707C115.044 7.97855 114.869 8.38771 114.898 8.82609C114.869 9.26448 115.044 9.70286 115.366 10.0243C115.717 10.3458 116.155 10.4919 116.623 10.4919C117.09 10.5212 117.558 10.3458 117.909 10.0243Z"></path>
                        <path d="M48.2932 1.46128C46.7735 0.789089 45.1661 0.292255 43.5002 0C43.2664 0.409157 43.0618 0.818315 42.8865 1.2567C41.133 0.993668 39.321 0.993668 37.5674 1.2567C37.3921 0.818315 37.1875 0.409157 36.9537 0C35.2879 0.292255 33.6804 0.789089 32.1607 1.4905C29.1213 5.96201 28.303 10.3458 28.7121 14.642C30.4949 15.9571 32.4822 16.9508 34.5864 17.5938C35.054 16.9508 35.4924 16.2786 35.8431 15.5772C35.171 15.3142 34.4988 14.9927 33.8558 14.642C34.0312 14.5251 34.1773 14.4082 34.3526 14.2913C38.0643 16.0448 42.3604 16.0448 46.1013 14.2913C46.2474 14.4082 46.4228 14.5543 46.5981 14.642C45.9552 15.0219 45.3122 15.3434 44.6108 15.5772C44.9615 16.2786 45.3999 16.9508 45.8675 17.5938C47.9717 16.9508 49.9591 15.9571 51.7418 14.642C52.2386 9.64442 50.9235 5.31904 48.2932 1.46128ZM36.3984 11.9825C35.2586 11.9825 34.2942 10.9303 34.2942 9.67365C34.2942 8.41695 35.2002 7.3356 36.3692 7.3356C37.5382 7.3356 38.4734 8.38772 38.4734 9.67365C38.4734 10.9596 37.5674 11.9825 36.3984 11.9825ZM44.114 11.9825C42.9742 11.9825 42.0389 10.9303 42.0389 9.67365C42.0389 8.41695 42.9449 7.3356 44.114 7.3356C45.283 7.3356 46.2182 8.38772 46.189 9.67365C46.1597 10.9596 45.2538 11.9825 44.114 11.9825Z"></path>
                        <path d="M72.9889 5.96202C73.8444 5.96202 74.5378 5.33396 74.5378 4.5592C74.5378 3.78444 73.8444 3.15637 72.9889 3.15637C72.1334 3.15637 71.4399 3.78444 71.4399 4.5592C71.4399 5.33396 72.1334 5.96202 72.9889 5.96202Z"></path>
                        <path d="M71.4104 6.92645C72.4041 7.33561 73.5439 7.33561 74.5375 6.92645V12.6839H71.4104V6.92645Z"></path>
                      </g>
                    </svg>